<svg width="271" height="271" viewBox="0 0 271 271" fill="none" xmlns="http://www.w3.org/2000/svg">
<path d="M10 137.552L132 5H144L267 138.621L263 158.931L12.5 160L10 137.552Z" fill="#7270e032"/>
<path d="M42.6585 165.859V159.859H36.6585H20.0882C14.1831 159.859 9.49908 156.054 7.36686 150.431C5.22881 144.792 6.01123 138.11 10.5515 133.264L125.697 10.3722C131.042 4.66775 139.426 4.66776 144.771 10.3722L259.917 133.264C264.457 138.11 265.24 144.792 263.102 150.431C260.969 156.054 256.285 159.859 250.38 159.859H234.801H228.801V165.859V248.657C228.801 257.636 222.18 264.094 214.987 264.094H173.432V234.724C173.432 222.984 164.529 212.646 152.572 212.646H117.897C105.94 212.646 97.0362 222.984 97.0362 234.724V264.094H56.4727C49.2792 264.094 42.6585 257.636 42.6585 248.657V165.859Z" stroke="#7270e0" stroke-width="12"/>
<path d="M75 160C121.863 160 148.137 160 195 160" stroke="#7270e0" stroke-width="12" stroke-linecap="round"/>
</svg>
