<svg viewBox="0 0 668 668" xmlns="http://www.w3.org/2000/svg">
<path d="M0 50C0 22.3858 22.3858 0 50 0H618C645.614 0 668 22.3858 668 50V139H0V50Z" fill="white"/>
<path fill-rule="evenodd" clip-rule="evenodd" d="M668 183H0V618C0 645.614 22.3858 668 50 668H618C645.614 668 668 645.614 668 618V183ZM369.886 336.255L337.303 304L179.366 460.348L138.01 419.408C130.16 411.637 117.433 411.637 109.583 419.408L77 451.663L132.57 506.674L172.259 545.964C176.184 549.85 182.548 549.85 186.473 545.964L226.163 506.674L369.886 364.396C377.736 356.625 377.736 344.026 369.886 336.255Z" fill="white"/>
</svg>
